<svg width="200" height="200" viewBox="0 0 200 200" fill="none" xmlns="http://www.w3.org/2000/svg">
<path fill-rule="evenodd" clip-rule="evenodd" d="M107.071 2.92893C103.166 -0.976311 96.8342 -0.976311 92.9289 2.92893L12.9289 82.9289C11.0536 84.8043 10 87.3478 10 90V190C10 195.523 14.4772 200 20 200H180C185.523 200 190 195.523 190 190V90C190 87.3478 188.946 84.8043 187.071 82.9289L107.071 2.92893ZM115 110C112.239 110 110 112.239 110 115V135C110 137.761 112.239 140 115 140H135C137.761 140 140 137.761 140 135V115C140 112.239 137.761 110 135 110H115Z" fill="currentColor"/>
</svg>
