<svg width="200" height="200" viewBox="0 0 200 200" fill="none" xmlns="http://www.w3.org/2000/svg">
<path fill-rule="evenodd" clip-rule="evenodd" d="M101.5 188C150.377 188 190 148.377 190 99.5C190 50.6228 150.377 11 101.5 11C52.6228 11 13 50.6228 13 99.5C13 148.377 52.6228 188 101.5 188ZM90 60C90 54.4772 94.4771 50 100 50C105.523 50 110 54.4772 110 60V90H140C145.523 90 150 94.4771 150 100C150 105.523 145.523 110 140 110H110V140C110 145.523 105.523 150 100 150C94.4771 150 90 145.523 90 140V110H60C54.4772 110 50 105.523 50 100C50 94.4771 54.4772 90 60 90H90V60Z" fill="currentColor"/>
</svg>
