<svg width="20" height="20" viewBox="0 0 20 20" fill="none" xmlns="http://www.w3.org/2000/svg">
<path fill-rule="evenodd" clip-rule="evenodd" d="M17 9.94998C17 13.7331 13.9332 16.8 10.15 16.8C6.36685 16.8 3.3 13.7331 3.3 9.94998C3.3 6.16683 6.36685 3.09998 10.15 3.09998C13.9332 3.09998 17 6.16683 17 9.94998ZM19 9.94998C19 14.8377 15.0377 18.8 10.15 18.8C5.26228 18.8 1.3 14.8377 1.3 9.94998C1.3 5.06226 5.26228 1.09998 10.15 1.09998C15.0377 1.09998 19 5.06226 19 9.94998ZM9 5.99998C9 5.44769 9.44772 4.99998 10 4.99998C10.5523 4.99998 11 5.44769 11 5.99998V8.99998H14C14.5523 8.99998 15 9.44769 15 9.99998C15 10.5523 14.5523 11 14 11H11V14C11 14.5523 10.5523 15 10 15C9.44772 15 9 14.5523 9 14V11H6C5.44772 11 5 10.5523 5 9.99998C5 9.44769 5.44772 8.99998 6 8.99998H9V5.99998Z" fill="currentColor"/>
</svg>
