<svg width="200" height="200" viewBox="0 0 200 200" fill="none" xmlns="http://www.w3.org/2000/svg">
<path fill-rule="evenodd" clip-rule="evenodd" d="M85.4663 11.2746C87.1228 4.79252 93.0017 0 100 0C106.998 0 112.877 4.79252 114.534 11.2746C130.505 14.1974 143.442 22.0442 152.809 33.7531C164.632 48.5318 170 68.4748 170 90C170 99.1309 171.136 104.876 172.584 109.101C173.922 113 175.6 115.921 177.842 119.823C178.114 120.296 178.394 120.783 178.682 121.289C181.335 125.931 184.305 131.452 186.507 139.343C188.685 147.149 190 156.842 190 170C190 172.652 188.946 175.196 187.071 177.071C185.196 178.946 182.652 180 180 180L128.344 180C127.446 182.447 126.086 185.259 124.087 188.007C119.52 194.287 111.699 200 100 200C88.3009 200 80.4798 194.287 75.9126 188.007C73.9144 185.259 72.5538 182.447 71.6561 180L20 180C17.3478 180 14.8043 178.946 12.9289 177.071C11.0536 175.196 10 172.652 10 170C10 156.842 11.3146 147.149 13.493 139.343C15.6952 131.452 18.665 125.931 21.3176 121.289C21.6061 120.784 21.886 120.297 22.1575 119.824L22.158 119.823C24.4003 115.921 26.0784 113.001 27.4155 109.101C28.8638 104.876 30 99.1309 30 90C30 68.4748 35.3683 48.5318 47.1913 33.7531C56.5584 22.0442 69.4946 14.1974 85.4663 11.2746Z" fill="currentColor"/>
</svg>
