<svg width="48" height="48" viewBox="0 0 48 48" fill="none" xmlns="http://www.w3.org/2000/svg">
<path fill-rule="evenodd" clip-rule="evenodd" d="M16.8156 8.59289C16.3151 8.8263 16.0985 9.42128 16.3319 9.92182L18.0224 13.547C18.2558 14.0476 18.8508 14.2641 19.3513 14.0307C19.8519 13.7973 20.0684 13.2024 19.835 12.7018L18.1445 9.07658C17.9111 8.57604 17.3161 8.35949 16.8156 8.59289ZM11.9793 11.9793C11.5888 12.3698 11.5888 13.003 11.9793 13.3935L14.8077 16.2219C15.1983 16.6125 15.8314 16.6125 16.2219 16.2219C16.6125 15.8314 16.6125 15.1983 16.2219 14.8077L13.3935 11.9793C13.003 11.5888 12.3698 11.5888 11.9793 11.9793ZM31.7783 31.7783C31.3878 32.1688 31.3878 32.802 31.7783 33.1925L34.6067 36.0209C34.9973 36.4115 35.6304 36.4115 36.0209 36.0209C36.4115 35.6304 36.4115 34.9973 36.0209 34.6067L33.1925 31.7783C32.802 31.3878 32.1688 31.3878 31.7783 31.7783ZM9.07658 18.1445C8.57604 17.9111 8.35948 17.3162 8.59289 16.8156C8.82629 16.3151 9.42128 16.0985 9.92181 16.3319L13.5471 18.0224C14.0476 18.2558 14.2641 18.8508 14.0307 19.3513C13.7973 19.8519 13.2024 20.0684 12.7018 19.835L9.07658 18.1445ZM33.9695 28.6489C33.7361 29.1495 33.9527 29.7444 34.4532 29.9779L38.0784 31.6683C38.579 31.9017 39.174 31.6852 39.4074 31.1846C39.6408 30.6841 39.4242 30.0891 38.9237 29.8557L35.2984 28.1652C34.7979 27.9318 34.2029 28.1484 33.9695 28.6489ZM35.8673 26.0422C35.3171 25.9941 34.9101 25.509 34.9583 24.9588C35.0064 24.4087 35.4914 24.0017 36.0416 24.0498L40.0264 24.3984C40.5766 24.4466 40.9836 24.9316 40.9354 25.4818C40.8873 26.032 40.4023 26.4389 39.8521 26.3908L35.8673 26.0422ZM28.1652 35.2984C27.9318 34.7979 28.1484 34.2029 28.6489 33.9695C29.1495 33.7361 29.7444 33.9527 29.9778 34.4532L31.6683 38.0784C31.9017 38.579 31.6852 39.1739 31.1846 39.4074C30.6841 39.6408 30.0891 39.4242 29.8557 38.9237L28.1652 35.2984ZM24.9588 34.9583C24.4086 35.0064 24.0017 35.4914 24.0498 36.0416L24.3984 40.0264C24.4465 40.5766 24.9316 40.9836 25.4818 40.9354C26.0319 40.8873 26.4389 40.4023 26.3908 39.8521L26.0422 35.8673C25.994 35.3171 25.509 34.9101 24.9588 34.9583Z" fill="currentColor"/>
</svg>
