<svg width="200" height="200" viewBox="0 0 200 200" fill="none" xmlns="http://www.w3.org/2000/svg">
<path fill-rule="evenodd" clip-rule="evenodd" d="M74.9037 3.17773C79.7876 1.91509 84.8473 4.48771 86.7044 9.1779C89.5899 16.4652 95.079 20 100 20C104.921 20 110.41 16.4652 113.296 9.1779C115.153 4.48771 120.212 1.91509 125.096 3.17773C134.207 5.53325 142.813 9.13923 150.717 13.7988C155.061 16.3596 156.819 21.7541 154.817 26.3825C151.708 33.5739 153.09 39.9525 156.569 43.4314C160.047 46.9103 166.426 48.2924 173.617 45.1826C178.246 43.1811 183.64 44.9388 186.201 49.2828C190.861 57.1872 194.467 65.7926 196.822 74.9037C198.085 79.7876 195.512 84.8472 190.822 86.7044C183.535 89.5898 180 95.079 180 100C180 104.921 183.535 110.41 190.822 113.296C195.512 115.153 198.085 120.212 196.822 125.096C194.467 134.207 190.861 142.813 186.201 150.717C183.64 155.061 178.246 156.819 173.617 154.817C166.426 151.708 160.047 153.09 156.569 156.569C153.09 160.047 151.708 166.426 154.817 173.617C156.819 178.246 155.061 183.64 150.717 186.201C142.813 190.861 134.207 194.467 125.096 196.822C120.212 198.085 115.153 195.512 113.296 190.822C110.41 183.535 104.921 180 100 180C95.079 180 89.5899 183.535 86.7044 190.822C84.8473 195.512 79.7876 198.085 74.9037 196.822C65.7926 194.467 57.1872 190.861 49.2829 186.201C44.9389 183.64 43.1812 178.246 45.1826 173.617C48.2924 166.426 46.9104 160.047 43.4315 156.569C39.9526 153.09 33.574 151.708 26.3826 154.817C21.7542 156.819 16.3597 155.061 13.7989 150.717C9.13928 142.813 5.53331 134.207 3.17779 125.096C1.91515 120.212 4.48778 115.153 9.17796 113.296C16.4652 110.41 20 104.921 20 100C20 95.079 16.4652 89.5898 9.17796 86.7044C4.48777 84.8472 1.91515 79.7876 3.1778 74.9037C5.53331 65.7926 9.13928 57.1872 13.7989 49.2829C16.3597 44.9389 21.7542 43.1811 26.3826 45.1826C33.574 48.2924 39.9526 46.9103 43.4315 43.4314C46.9104 39.9525 48.2924 33.5739 45.1826 26.3825C43.1812 21.7541 44.9389 16.3596 49.2829 13.7988C57.1872 9.13922 65.7926 5.53325 74.9037 3.17773ZM100 70C83.4315 70 70 83.4314 70 100C70 116.569 83.4315 130 100 130C116.569 130 130 116.569 130 100C130 83.4314 116.569 70 100 70ZM50 100C50 72.3857 72.3858 50 100 50C127.614 50 150 72.3857 150 100C150 127.614 127.614 150 100 150C72.3858 150 50 127.614 50 100Z" fill="currentColor"/>
</svg>
