<svg width="48" height="48" viewBox="0 0 48 48" fill="none" xmlns="http://www.w3.org/2000/svg">
<path fill-rule="evenodd" clip-rule="evenodd" d="M14.1008 19.7576C12.3434 21.515 12.3434 24.3642 14.1008 26.1216L13.7472 25.768C12.0622 27.453 11.8313 30.0415 13.0544 31.9741C10.2634 34.2642 7.27642 35.516 4.83602 36.1993C3.3919 36.6037 2.15422 36.8045 1.28788 36.9039C0.855424 36.9536 0.517645 36.9777 0.295541 36.9893C0.18456 36.9952 0.102667 36.9979 0.0525274 36.9992C0.0274631 36.9998 0.0103508 37.0001 0.00152496 37.0002L-0.00114007 37.0003C-0.000449538 37.0003 0.000284155 37.0003 0.000284155 39.0003C0.000273365 41.0003 0.00106101 41.0003 0.0018918 41.0003L0.00372603 41.0003L0.0080095 41.0003L0.0190904 41.0002L0.0510708 40.9999C0.0767284 40.9996 0.111018 40.999 0.153572 40.9979C0.196072 40.9968 0.246859 40.9953 0.305576 40.993C0.364454 40.9907 0.431307 40.9877 0.505777 40.9838C0.803213 40.9682 1.22325 40.9376 1.7439 40.8778C2.78382 40.7585 4.23363 40.5218 5.91452 40.0512C8.82228 39.237 12.4667 37.7093 15.8647 34.8393C17.8125 36.1811 20.5 35.9858 22.2325 34.2533L21.8789 33.8998C23.6363 35.6571 26.4855 35.6571 28.2429 33.8998C28.8287 33.314 28.8287 32.3642 28.2429 31.7784L27.7995 31.3351C27.987 31.2649 28.1593 31.155 28.3036 31.0107C29.1945 30.1198 28.5635 28.5965 27.3036 28.5965H26.7178C25.8027 28.5965 25.0609 27.8547 25.0609 26.9396V25.768C25.0609 24.2059 23.7946 22.9396 22.2325 22.9396H21.0609C20.1459 22.9396 19.4041 22.1978 19.4041 21.2828V20.697C19.4041 19.437 17.8808 18.8061 16.9899 19.697C16.8456 19.8412 16.7357 20.0135 16.6655 20.201L16.2221 19.7576C15.6363 19.1718 14.6866 19.1718 14.1008 19.7576Z" fill="currentColor"/>
</svg>
