<svg width="48" height="48" viewBox="0 0 48 48" fill="none" xmlns="http://www.w3.org/2000/svg">
<path fill-rule="evenodd" clip-rule="evenodd" d="M19.7576 14.1008C21.515 12.3434 24.3642 12.3434 26.1216 14.1008L25.768 13.7472C27.453 12.0622 30.0415 11.8313 31.9741 13.0544C34.2642 10.2634 35.516 7.27642 36.1993 4.83602C36.6037 3.3919 36.8045 2.15422 36.9039 1.28788C36.9536 0.855426 36.9777 0.517647 36.9893 0.295543C36.9952 0.184561 36.9979 0.102668 36.9992 0.0525288C36.9998 0.0274646 37.0001 0.0103523 37.0002 0.00152639L37.0003 -0.00113864C37.0003 -0.000448107 37.0003 0.000285585 39.0003 0.000285585C41.0003 0.000274796 41.0003 0.00106244 41.0003 0.00189323L41.0003 0.00372747L41.0003 0.00801093L41.0002 0.0190918L40.9999 0.0510722C40.9996 0.0767299 40.999 0.111019 40.9979 0.153573C40.9958 0.238682 40.9917 0.357011 40.9838 0.505778C40.9682 0.803215 40.9376 1.22325 40.8778 1.74391C40.7585 2.78382 40.5218 4.23364 40.0512 5.91453C39.237 8.82228 37.7093 12.4667 34.8393 15.8647C36.1811 17.8125 35.9858 20.5 34.2533 22.2325L33.8998 21.8789C35.6571 23.6363 35.6571 26.4855 33.8998 28.2429C33.314 28.8287 32.3642 28.8287 31.7784 28.2429L30.5965 27.0609C30.0846 27.5728 29.3775 27.8893 28.5965 27.8894C27.0344 27.8894 25.768 26.623 25.768 25.0609C25.768 23.4988 24.5017 22.2325 22.9396 22.2325C21.3775 22.2325 20.1112 20.9662 20.1112 19.4041C20.1112 18.623 20.4278 17.9159 20.9396 17.4041L19.7576 16.2221C19.1718 15.6363 19.1718 14.6866 19.7576 14.1008Z" fill="currentColor"/>
</svg>
