<svg width="20" height="20" viewBox="0 0 20 20" fill="none" xmlns="http://www.w3.org/2000/svg">
<path fill-rule="evenodd" clip-rule="evenodd" d="M10.7071 0.292893C10.3166 -0.0976311 9.68342 -0.0976311 9.29289 0.292893L1.29289 8.29289C1.10536 8.48043 1 8.73478 1 9V18C1 18.5523 1.44771 19 2 19H18C18.5523 19 19 18.5523 19 18V9C19 8.73478 18.8946 8.48043 18.7071 8.29289L10.7071 0.292893ZM3 17V9.41421L10 2.41421L17 9.41421V17H3ZM11 10C10.4477 10 10 10.4477 10 11V14C10 14.5523 10.4477 15 11 15H14C14.5523 15 15 14.5523 15 14V11C15 10.4477 14.5523 10 14 10H11ZM12 13V12H13V13H12Z" fill="currentColor"/>
</svg>
