<svg width="20" height="20" viewBox="0 0 20 20" fill="none" xmlns="http://www.w3.org/2000/svg">
<path fill-rule="evenodd" clip-rule="evenodd" d="M11.4534 1.12746C13.0505 1.41974 14.3442 2.20442 15.2809 3.37531C16.4632 4.85319 17 6.84748 17 9C17 9.91309 17.1136 10.4876 17.2584 10.9101C17.3922 11.3 17.56 11.5921 17.7842 11.9823L17.8682 12.1289C18.1335 12.5931 18.4305 13.1452 18.6507 13.9343C18.8685 14.7149 19 15.6842 19 17C19 17.2652 18.8946 17.5196 18.7071 17.7071C18.5196 17.8946 18.2652 18 18 18L12.8344 18C12.7446 18.2447 12.6086 18.5259 12.4087 18.8007C11.952 19.4287 11.1699 20 10 20C8.83009 20 8.04798 19.4287 7.59126 18.8007C7.39144 18.5259 7.25538 18.2447 7.16561 18L2 18C1.73478 18 1.48043 17.8946 1.29289 17.7071C1.10536 17.5196 1 17.2652 1 17C1 15.6842 1.13146 14.7149 1.3493 13.9343C1.56952 13.1452 1.8665 12.5931 2.13176 12.1289L2.2158 11.9823C2.44003 11.5921 2.60784 11.3001 2.74155 10.9101C2.88638 10.4876 3 9.91309 3 9C3 6.84748 3.53683 4.85319 4.71913 3.37531C5.65584 2.20442 6.94946 1.41974 8.54663 1.12746C8.71228 0.479252 9.30017 0 10 0C10.6998 0 11.2877 0.479252 11.4534 1.12746ZM5 9C5 7.15252 5.46317 5.64682 6.28087 4.6247C7.07454 3.63261 8.27625 3 10 3C11.7237 3 12.9255 3.63261 13.7191 4.6247C14.5368 5.64682 15 7.15252 15 9C15 10.0869 15.1364 10.8874 15.3666 11.5587C15.5664 12.1416 15.831 12.5999 16.0509 12.9806C16.0786 13.0287 16.1057 13.0755 16.1318 13.1211C16.3665 13.5319 16.5695 13.9173 16.7243 14.4719C16.8322 14.8586 16.9219 15.3479 16.9675 16L12.4 16L12.3864 15.9999H12.3864C12.3143 15.9989 12.0518 15.9953 11.8088 16.0763C11.6489 16.1296 11.4242 16.24 11.245 16.4704C11.0701 16.6954 11.0074 16.9455 11.0006 17.16C11.0004 17.1608 11.0001 17.1622 10.9997 17.1644C10.997 17.178 10.9887 17.2187 10.9663 17.2843C10.9301 17.3901 10.8725 17.5127 10.7913 17.6243C10.648 17.8213 10.4301 18 10 18C9.56991 18 9.35202 17.8213 9.20874 17.6243C9.12754 17.5127 9.06989 17.3901 9.03373 17.2843C9.0113 17.2187 9.00304 17.178 9.0003 17.1644C8.99986 17.1622 8.99956 17.1608 8.99937 17.16C8.99257 16.9455 8.92992 16.6954 8.75498 16.4704C8.57577 16.24 8.35108 16.1296 8.19124 16.0763C7.94823 15.9953 7.68567 15.9989 7.61359 15.9999H7.61357L7.6 16L3.03245 16C3.07807 15.3479 3.16778 14.8586 3.2757 14.4719C3.43048 13.9173 3.6335 13.5319 3.86824 13.1211C3.89431 13.0755 3.9213 13.0288 3.94901 12.9808L3.94912 12.9806C4.16896 12.5999 4.43359 12.1416 4.63345 11.5587C4.86362 10.8874 5 10.0869 5 9Z" fill="currentColor"/>
</svg>
