<svg width="20" height="20" viewBox="0 0 20 20" fill="none" xmlns="http://www.w3.org/2000/svg">
<path fill-rule="evenodd" clip-rule="evenodd" d="M13.3688 14.7273C16.0478 13.9245 18 11.4403 18 8.5C18 4.91015 15.0899 2 11.5 2H8.5C4.91015 2 2 4.91015 2 8.5C2 12.0899 4.91015 15 8.5 15H11.2L13 18V14.8261C13.1243 14.7967 13.2473 14.7638 13.3688 14.7273ZM15 16.2476C17.9481 14.9138 20 11.9483 20 8.5C20 3.80558 16.1944 0 11.5 0H8.5C3.80558 0 0 3.80558 0 8.5C0 13.1944 3.80558 17 8.5 17H10.0676L11.285 19.029C11.7475 19.7998 12.6675 20.1674 13.5339 19.9274C14.4002 19.6875 15 18.899 15 18V16.2476Z" fill="currentColor"/>
</svg>
