<svg width="20" height="20" viewBox="0 0 20 20" fill="none" xmlns="http://www.w3.org/2000/svg">
<path fill-rule="evenodd" clip-rule="evenodd" d="M7.49038 0.317755C7.97877 0.19149 8.48474 0.448753 8.67045 0.917772C8.959 1.6465 9.50791 1.99998 10 1.99998C10.4921 1.99998 11.041 1.6465 11.3296 0.917772C11.5153 0.448753 12.0212 0.19149 12.5096 0.317755C13.4207 0.553307 14.2813 0.913904 15.0717 1.37987C15.5061 1.63595 15.6819 2.17539 15.4817 2.63823C15.1708 3.35738 15.309 3.99523 15.6569 4.34312C16.0048 4.69101 16.6426 4.82922 17.3618 4.51824C17.8246 4.31809 18.364 4.49387 18.6201 4.92827C19.0861 5.7187 19.4467 6.57924 19.6822 7.49035C19.8085 7.97874 19.5512 8.4847 19.0822 8.67042C18.3535 8.95896 18 9.50788 18 9.99998C18 10.4921 18.3535 11.041 19.0822 11.3295C19.5512 11.5153 19.8085 12.0212 19.6822 12.5096C19.4467 13.4207 19.0861 14.2813 18.6201 15.0717C18.364 15.5061 17.8246 15.6819 17.3618 15.4817C16.6426 15.1707 16.0048 15.3089 15.6569 15.6568C15.309 16.0047 15.1708 16.6426 15.4817 17.3617C15.6819 17.8246 15.5061 18.364 15.0717 18.6201C14.2813 19.086 13.4207 19.4466 12.5096 19.6822C12.0212 19.8085 11.5153 19.5512 11.3296 19.0822C11.041 18.3535 10.4921 18 10 18C9.50791 18 8.959 18.3535 8.67045 19.0822C8.48474 19.5512 7.97877 19.8085 7.49038 19.6822C6.57927 19.4466 5.71873 19.0861 4.9283 18.6201C4.4939 18.364 4.31812 17.8246 4.51827 17.3617C4.82925 16.6426 4.69104 16.0047 4.34315 15.6568C3.99526 15.3089 3.35741 15.1707 2.63826 15.4817C2.17542 15.6819 1.63598 15.5061 1.3799 15.0717C0.913934 14.2813 0.553337 13.4207 0.317786 12.5096C0.191521 12.0212 0.448784 11.5153 0.917802 11.3295C1.64653 11.041 2.00001 10.4921 2.00001 9.99998C2.00001 9.50788 1.64653 8.95896 0.917802 8.67042C0.448784 8.4847 0.191521 7.97874 0.317786 7.49035C0.553337 6.57924 0.913934 5.7187 1.3799 4.92827C1.63597 4.49387 2.17542 4.31809 2.63826 4.51824C3.35741 4.82922 3.99526 4.69101 4.34315 4.34312C4.69104 3.99523 4.82925 3.35738 4.51827 2.63823C4.31812 2.17539 4.4939 1.63594 4.9283 1.37987C5.71873 0.913904 6.57927 0.553306 7.49038 0.317755ZM6.62653 2.74366C6.8189 3.80605 6.58053 4.93417 5.75737 5.75734C4.9342 6.5805 3.80608 6.81887 2.74369 6.6265C2.64834 6.83121 2.56142 7.0406 2.48336 7.25423C3.37074 7.86941 4.00001 8.83574 4.00001 9.99998C4.00001 11.1642 3.37074 12.1305 2.48336 12.7457C2.56142 12.9594 2.64834 13.1687 2.74369 13.3735C3.80608 13.1811 4.9342 13.4195 5.75737 14.2426C6.58053 15.0658 6.8189 16.1939 6.62653 17.2563C6.83124 17.3516 7.04063 17.4386 7.25426 17.5166C7.86944 16.6292 8.83577 16 10 16C11.1643 16 12.1306 16.6292 12.7458 17.5166C12.9594 17.4386 13.1688 17.3516 13.3735 17.2563C13.1811 16.1939 13.4195 15.0658 14.2427 14.2426C15.0658 13.4195 16.1939 13.1811 17.2563 13.3735C17.3517 13.1687 17.4386 12.9594 17.5167 12.7457C16.6293 12.1305 16 11.1642 16 9.99998C16 8.83574 16.6293 7.86941 17.5167 7.25423C17.4386 7.0406 17.3517 6.83121 17.2563 6.6265C16.1939 6.81887 15.0658 6.5805 14.2427 5.75733C13.4195 4.93417 13.1811 3.80605 13.3735 2.74366C13.1688 2.64831 12.9594 2.56139 12.7458 2.48333C12.1306 3.37071 11.1643 3.99998 10 3.99998C8.83577 3.99998 7.86944 3.37071 7.25426 2.48333C7.04063 2.56139 6.83124 2.64831 6.62653 2.74366ZM10 6.99998C8.34315 6.99998 7.00001 8.34312 7.00001 9.99998C7.00001 11.6568 8.34315 13 10 13C11.6569 13 13 11.6568 13 9.99998C13 8.34312 11.6569 6.99998 10 6.99998ZM5.00001 9.99998C5.00001 7.23855 7.23858 4.99998 10 4.99998C12.7614 4.99998 15 7.23855 15 9.99998C15 12.7614 12.7614 15 10 15C7.23858 15 5.00001 12.7614 5.00001 9.99998Z" fill="currentColor"/>
</svg>
