<svg width="20" height="20" viewBox="0 0 20 20" fill="none" xmlns="http://www.w3.org/2000/svg">
<path fill-rule="evenodd" clip-rule="evenodd" d="M3.15702 2.87986C1.52533 3.16757 0.435828 4.72354 0.723538 6.35522C0.769946 6.61842 0.865852 6.86045 0.999993 7.07344V17C0.999993 18.1046 1.89542 19 2.99999 19H17C18.1046 19 19 18.1046 19 17V7.99999C19 6.89542 18.1046 5.99999 17 5.99999H14.2557L16.8278 5.54647C17.9155 5.35466 18.6419 4.31735 18.4501 3.22956C18.1624 1.59787 16.6064 0.508369 14.9747 0.796078L3.15702 2.87986ZM2.73817 5.99999L16.4805 3.57685C16.3846 3.03296 15.8659 2.66979 15.322 2.76569L3.50431 4.84947C2.96307 4.94491 2.60079 5.459 2.69179 5.99999H2.73817ZM2.99999 7.99999V17H17V7.99999H2.99999ZM7.50729 9.12979C7.8208 8.95228 8.20556 8.95714 8.51449 9.1425L13.5145 12.1425C13.8403 12.338 14.0271 12.7012 13.9968 13.0799C13.9665 13.4586 13.7241 13.7874 13.3714 13.9285L8.37138 15.9285C8.06329 16.0517 7.71414 16.0141 7.43936 15.8281C7.16459 15.642 6.99999 15.3318 6.99999 15V9.99999C6.99999 9.63972 7.19379 9.30729 7.50729 9.12979ZM8.99999 11.7662V13.523L10.7568 12.8202L8.99999 11.7662Z" fill="currentColor"/>
</svg>
