<?xml version="1.0" standalone="no"?>
<!DOCTYPE svg PUBLIC "-//W3C//DTD SVG 20010904//EN"
 "http://www.w3.org/TR/2001/REC-SVG-20010904/DTD/svg10.dtd">
<svg version="1.0" xmlns="http://www.w3.org/2000/svg"
 width="700.000000pt" height="700.000000pt" viewBox="0 0 700.000000 700.000000"
 preserveAspectRatio="xMidYMid meet">
<metadata>
Created by potrace 1.14, written by Peter Selinger 2001-2017
</metadata>
<g transform="translate(0.000000,700.000000) scale(0.100000,-0.100000)"
fill="#000000" stroke="none">
<path d="M3278 6995 c-1 -1 -42 -5 -89 -9 -47 -4 -95 -8 -105 -10 -10 -2 -48
-7 -84 -12 -36 -4 -67 -8 -70 -9 -3 -1 -25 -5 -50 -9 -201 -35 -475 -114 -684
-198 -121 -48 -346 -157 -433 -210 -34 -21 -67 -38 -73 -38 -5 0 -10 -4 -10
-10 0 -5 -5 -10 -11 -10 -15 0 -206 -131 -323 -223 -364 -282 -681 -653 -908
-1062 -49 -87 -148 -289 -148 -301 0 -2 -9 -23 -20 -47 -57 -123 -157 -435
-186 -582 -2 -11 -10 -54 -19 -95 -29 -147 -36 -200 -52 -370 -15 -164 -8
-592 12 -711 2 -13 6 -46 9 -74 9 -78 23 -156 51 -285 54 -251 162 -550 288
-800 61 -122 169 -312 187 -330 3 -3 31 -43 62 -90 170 -255 431 -534 708
-755 92 -74 370 -265 386 -265 4 0 15 -6 23 -14 32 -28 311 -164 456 -223 260
-104 553 -183 814 -219 25 -3 57 -8 71 -10 163 -25 682 -25 842 1 13 2 46 7
73 10 71 10 86 13 120 19 17 3 44 8 60 11 92 16 310 74 440 117 190 63 563
232 655 298 15 11 33 20 39 20 6 0 11 5 11 10 0 6 5 10 10 10 14 0 216 138
320 219 189 146 388 338 451 434 75 115 110 244 104 387 -8 199 -98 372 -259
494 -226 171 -538 177 -769 15 -20 -15 -88 -75 -150 -133 -287 -270 -572 -436
-922 -537 -114 -33 -281 -65 -394 -76 -138 -13 -503 -4 -532 13 -3 1 -28 6
-55 10 -235 31 -583 168 -824 325 -237 155 -453 369 -614 609 -177 266 -287
538 -342 850 -28 159 -37 403 -21 578 26 286 121 592 267 857 32 58 166 265
179 275 3 3 30 34 60 70 56 66 178 191 241 245 333 286 782 480 1205 521 166
16 419 9 565 -16 30 -5 69 -12 86 -15 63 -10 232 -57 314 -87 193 -69 489
-230 576 -312 7 -6 25 -20 40 -31 34 -24 209 -181 244 -220 32 -35 121 -95
183 -123 250 -116 565 -52 750 152 77 85 143 209 162 306 15 78 13 220 -5 288
-40 155 -94 238 -261 399 -377 365 -828 639 -1319 802 -176 59 -416 118 -550
136 -19 3 -46 7 -60 10 -13 2 -52 7 -86 11 -33 3 -74 8 -90 10 -32 5 -540 14
-546 9z"/>
</g>
</svg>
