<svg width="160" height="160" viewBox="0 0 160 160" fill="none" xmlns="http://www.w3.org/2000/svg">
<path fill-rule="evenodd" clip-rule="evenodd" d="M137.459 135.664C122.917 150.672 102.548 160 80 160C35.8172 160 0 124.183 0 80C0 35.8172 35.8172 0 80 0C102.548 0 122.917 9.32832 137.459 24.3363C140.207 27.0551 141.91 30.8287 141.91 35C141.91 43.2843 135.194 50 126.91 50C122.643 50 118.792 48.2185 116.061 45.3586L116.058 45.3615C106.96 35.893 94.1682 30 80 30C52.3858 30 30 52.3858 30 80C30 107.614 52.3858 130 80 130C94.1682 130 106.96 124.107 116.058 114.638L116.061 114.641C118.792 111.782 122.643 110 126.91 110C135.194 110 141.91 116.716 141.91 125C141.91 129.171 140.207 132.945 137.459 135.664Z" fill="currentColor"/>
</svg>
