<svg width="490" height="220" viewBox="0 0 490 220" fill="none" xmlns="http://www.w3.org/2000/svg">
<path fill-rule="evenodd" clip-rule="evenodd" d="M410 220C454.183 220 490 184.183 490 140C490 95.8172 454.183 60 410 60C365.817 60 330 95.8172 330 140C330 184.183 365.817 220 410 220ZM410 190C437.614 190 460 167.614 460 140C460 112.386 437.614 90 410 90C382.386 90 360 112.386 360 140C360 167.614 382.386 190 410 190Z" fill="currentColor"/>
<path d="M260 15C260 6.71573 266.716 0 275 0V0C283.284 0 290 6.71573 290 15V205C290 213.284 283.284 220 275 220V220C266.716 220 260 213.284 260 205V15Z" fill="currentColor"/>
<path fill-rule="evenodd" clip-rule="evenodd" d="M195 30C203.284 30 210 23.2843 210 15C210 6.71573 203.284 0 195 0C186.716 0 180 6.71573 180 15C180 23.2843 186.716 30 195 30ZM195 60C186.716 60 180 66.7157 180 75V205C180 213.284 186.716 220 195 220C203.284 220 210 213.284 210 205V75C210 66.7157 203.284 60 195 60Z" fill="currentColor"/>
<path fill-rule="evenodd" clip-rule="evenodd" d="M137.46 195.663C122.918 210.672 102.548 220 80 220C35.8172 220 0 184.183 0 140C0 95.8172 35.8172 60 80 60C102.548 60 122.917 69.3283 137.459 84.3362C140.207 87.0551 141.91 90.8287 141.91 95C141.91 103.284 135.194 110 126.91 110C122.643 110 118.792 108.218 116.061 105.359L116.058 105.362C106.96 95.893 94.1682 90 80 90C52.3858 90 30 112.386 30 140C30 167.614 52.3858 190 80 190C94.1682 190 106.96 184.107 116.058 174.638L116.061 174.641C118.792 171.782 122.643 170 126.91 170C135.194 170 141.91 176.716 141.91 185C141.91 189.171 140.208 192.945 137.46 195.663Z" fill="currentColor"/>
</svg>
