<svg width="15" height="17" viewBox="0 0 15 17" fill="none" xmlns="http://www.w3.org/2000/svg">
  <path fill-rule="evenodd" clip-rule="evenodd" d="M13.193 6.11403C13.193 8.28442 11.4335 10.0439 9.26314 10.0439C7.95396 10.0439 6.7943 9.40368 6.08013 8.41929C5.93955 8.15027 5.65787 7.96667 5.33332 7.96667C4.86823 7.96667 4.49121 8.34369 4.49121 8.80877C4.49121 9.00497 4.55831 9.1855 4.67081 9.32867L4.66355 9.33375C5.67891 10.7816 7.36049 11.7281 9.26314 11.7281C12.3637 11.7281 14.8772 9.21458 14.8772 6.11403C14.8772 3.01349 12.3637 0.5 9.26314 0.5C7.36049 0.5 5.67891 1.44649 4.66355 2.89432L4.67081 2.8994C4.55831 3.04257 4.49121 3.2231 4.49121 3.4193C4.49121 3.88438 4.86823 4.2614 5.33332 4.2614C5.65787 4.2614 5.93955 4.0778 6.08013 3.80878C6.7943 2.82439 7.95396 2.18421 9.26314 2.18421C11.4335 2.18421 13.193 3.94365 13.193 6.11403Z" fill="currentColor"/>
  <path fill-rule="evenodd" clip-rule="evenodd" d="M1.68423 10.886C1.68423 13.0563 3.44367 14.8158 5.61406 14.8158C6.92324 14.8158 8.0829 14.1756 8.79707 13.1912C8.93765 12.9222 9.21932 12.7386 9.54388 12.7386C10.009 12.7386 10.386 13.1156 10.386 13.5807C10.386 13.7769 10.3189 13.9574 10.2064 14.1006L10.2136 14.1057C9.19829 15.5535 7.5167 16.5 5.61406 16.5C2.51351 16.5 2.19345e-05 13.9865 2.19345e-05 10.886C2.19345e-05 7.78541 2.51351 5.27192 5.61406 5.27192C7.5167 5.27192 9.19829 6.21841 10.2136 7.66624L10.2064 7.67132C10.3189 7.81448 10.386 7.99501 10.386 8.19122C10.386 8.6563 10.009 9.03332 9.54388 9.03332C9.21932 9.03332 8.93765 8.84971 8.79707 8.5807C8.0829 7.59631 6.92324 6.95613 5.61406 6.95613C3.44367 6.95613 1.68423 8.71557 1.68423 10.886Z" fill="currentColor"/>
</svg>
